<svg id="Layer_1" xmlns="http://www.w3.org/2000/svg" viewBox="0 0 16 14.12"><defs><style>.cls-1{fill:none;stroke-linecap:round}.cls-1,.cls-2{stroke:#000;stroke-miterlimit:10;stroke-width:.25px}</style></defs><path class="cls-1" d="M5.69 5.62c-5.76 1.34-4.61 4 2.31 4s8.07-2.67 2.31-4M10.5 7.62h-5"/><path d="M7 4.62h2v3H7z"/><path class="cls-1" d="M6 3.62c0 1 1 1 2 1s2 0 2-1"/><path class="cls-2" d="M7 3.12q0 1 1 1t1-1M7 2.12v.5h2v-.5H7ZM7 1.62c0-1 0-1.5 1-1.5s1 .5 1 1.5"/><path d="M6 5.12c-6 1-6 5 2 5s8-4 2-5c-.1-.02 0-.5 0-.5s6 .46 6 3.5v2.5c0 1.3-1 3.5-7 3.5v-3h-.5v3h-1v-3H7v3c-6 0-7-2.49-7-3.5v-2.5c0-3.04 6-3.5 6-3.5s.1.48 0 .5Z"/></svg>